# xmcd
#
# Track frame offsets: 
#        150
#        11141
#        21161
#        33947
#        46575
#        56758
#        68094
#        79701
#        90602
#        101667
#        113529
#        125051
#        135334
#        148358
#        160999
#        175140
#        186243
#        198812
#        211685
#        223981
#        241856
#        255297
#
# Disc length: 3656 seconds
#
# Revision: 2
# Processed by: cddbd v1.5.2PL0 Copyright (c) Steve Scherf et al.
# Submitted via: ExactAudioCopy v1.2
#
DISCID=2c0e4616
DTITLE=Chu Berry - Swing 003 - Leon "Chu" Berry 1939-41
DYEAR=1939
DGENRE=Jazz
TTITLE0=Wingy Manone and his Orchestra - Downright Disgusted Blues
TTITLE1=Wingy Manone and his Orchestra - Corrine Corrina
TTITLE2=Wingy Manone and his Orchestra - I'm Real Kinda Papa
TTITLE3=Wingy Manone and his Orchestra - Jumpy Nerves
TTITLE4=Wingy Manone and his Orchestra - Casey Jones
TTITLE5=Wingy Manone and his Orchestra - Boogie Woogie
TTITLE6=Wingy Manone and his Orchestra - Royal Garden Blues
TTITLE7=Wingy Manone and his Orchestra - Beale Street Blues
TTITLE8=Wingy Manone and his Orchestra - In The Barrel
TTITLE9=Wingy Manone and his Orchestra - Farewell Blues
TTITLE10=Wingy Manone and his Orchestra - Fare Thee, My Baby, Fare-The
TTITLE10=e-Well
TTITLE11=Wingy Manone and his Orchestra - Limehouse Blues
TTITLE12=Wingy Manone and his Orchestra - Blue Lou
TTITLE13=Wingy Manone and his Orchestra - Sudan
TTITLE14=Wingy Manone and his Orchestra - How Long Blues
TTITLE15=Wingy Manone and his Orchestra - When The Saints Go Marching 
TTITLE15=In
TTITLE16=Wingy Manone and his Orchestra - My Honey's Lovin' Arms
TTITLE17=Wingy Manone and his Orchestra - When My Sugar Walks Down The
TTITLE17=Street
TTITLE18=Chu Berry and his Jazz Ensemble - Blowing Up A Breeze
TTITLE19=Chu Berry and his Jazz Ensemble - On The Sunny Side Of The St
TTITLE19=reet
TTITLE20=Chu Berry and his Jazz Ensemble - Monday At Minton's
TTITLE21=Chu Berry and his Jazz Ensemble - Gee Baby, Ain't I Good To Y
TTITLE21=ou?
EXTD=YEAR: 2006
EXTT0=
EXTT1=
EXTT2=
EXTT3=
EXTT4=
EXTT5=
EXTT6=
EXTT7=
EXTT8=
EXTT9=
EXTT10=
EXTT11=
EXTT12=
EXTT13=
EXTT14=
EXTT15=
EXTT16=
EXTT17=
EXTT18=
EXTT19=
EXTT20=
EXTT21=
PLAYORDER=
